<?xml version="1.0"?>
<svg width="75" height="71" xmlns="http://www.w3.org/2000/svg" xmlns:svg="http://www.w3.org/2000/svg">
    <g class="layer">
        <path
            d="m68.03,31.17l4.05,-7.01l-7.46,-12.91l-8.09,0l0,-8.47l-7.34,4.23l-4.05,-7.01l-14.91,0l-4.04,7.01l-7.34,-4.23l0,8.47l-8.1,0l-7.45,12.91l4.04,7.01l-7.34,4.24l7.35,4.24l-4.05,7.01l7.45,12.91l8.1,0l0,8.47l7.34,-4.23l4.05,7l14.9,0l4.05,-7l7.34,4.23l0,-8.47l8.09,-0.01l7.46,-12.91l-4.05,-7l7.34,-4.24l-7.34,-4.24z"
            fill="#c4d82e" id="svg_58" />
        <path
            d="m64.68,35.41c0,14.91 -12.09,26.99 -26.99,26.99c-14.91,0 -26.99,-12.08 -26.99,-26.99c0,-14.91 12.08,-26.99 26.99,-26.99c14.9,0 26.99,12.08 26.99,26.99"
            id="svg_60" />
        <path
            d="m63.05,30.07l-5.02,-2.9l3.04,-5.25l-6.08,0l0,-5.8l-9.25,-5.34l-5.01,2.9l-3.04,-5.26l-3.04,5.26l-5.02,-2.9l-9.25,5.34l0,5.79l-6.07,0.01l3.04,5.25l-5.02,2.9l0,10.68l5.02,2.9l-3.04,5.25l6.08,0l0,5.8l9.24,5.34l5.02,-2.9l3.04,5.26l3.04,-5.26l5.01,2.9l9.25,-5.34l0,-5.79l6.07,-0.01l-3.03,-5.25l5.02,-2.9l0,-10.68z"
            fill="#00afd5" id="svg_61" />
        <path
            d="m47.36,52.16c-9.25,5.34 -21.07,2.17 -26.41,-7.08c-5.34,-9.24 -2.17,-21.07 7.08,-26.41c9.24,-5.34 21.07,-2.17 26.41,7.08s2.17,21.07 -7.08,26.41"
            fill="#fff" id="svg_63" />
        <path
            d="m53.26,33.24l2.08,-3.6l-3.83,-6.62l-4.15,0l0,-4.35l-3.77,2.17l-2.07,-3.59l-7.66,0l-2.07,3.59l-3.77,-2.17l0,4.35l-4.15,0l-3.83,6.62l2.08,3.6l-3.77,2.17l3.77,2.18l-2.08,3.6l3.83,6.62l4.15,0l0,4.35l3.77,-2.17l2.07,3.59l7.66,0l2.07,-3.59l3.77,2.17l0,-4.35l4.15,0l3.83,-6.63l-2.08,-3.59l3.77,-2.18l-3.77,-2.17zm-1.72,2.17c0,7.65 -6.2,13.86 -13.85,13.86c-7.65,0 -13.85,-6.21 -13.85,-13.86c0,-7.65 6.2,-13.85 13.85,-13.85c7.65,0 13.85,6.2 13.85,13.85"
            fill="#d80f81" id="svg_64" />
        <path
            d="m50.71,32.67l-2.58,-1.49l1.56,-2.69l-3.11,0l0,-2.98l-4.75,-2.74l-2.58,1.49l-1.55,-2.7l-1.56,2.7l-2.58,-1.49l-4.74,2.74l0,2.98l-3.12,0l1.56,2.69l-2.58,1.49l0,5.48l2.58,1.49l-1.56,2.7l3.12,0l0,2.97l4.74,2.74l2.58,-1.48l1.56,2.69l1.55,-2.69l2.58,1.48l4.75,-2.74l0,-2.97l3.11,0l-1.56,-2.7l2.58,-1.49l0,-5.48zm-8.05,11.33c-4.75,2.74 -10.82,1.12 -13.56,-3.63c-2.73,-4.74 -1.11,-10.81 3.63,-13.55c4.75,-2.74 10.82,-1.11 13.56,3.63c2.74,4.75 1.11,10.82 -3.63,13.55"
            fill="#fdb913" id="svg_65" />
    </g>
</svg>